<svg xmlns="http://www.w3.org/2000/svg" xmlns:xlink="http://www.w3.org/1999/xlink" version="1.1" x="0px" y="0px" viewBox="0 0 67 83.75" enable-background="new 0 0 67 67" xml:space="preserve"><g><path d="M9.8995361,59.1344643c0.06604,0.3467407,0.3566895,0.6140747,0.7225342,0.6140747h4   c0.1171265,0,0.2244263-0.0321655,0.3231812-0.0800781c1.0264282-0.1159058,2.0099487-0.3693237,2.9395752-0.7329712   c-0.0018921,0.0218506-0.0127563,0.0406494-0.0127563,0.0630493c0,0.4140625,0.3359375,0.75,0.75,0.75h4   c0.4140625,0,0.75-0.3359375,0.75-0.75s-0.3359375-0.75-0.75-0.75h-3.2734985   c1.715332-0.9619751,3.1600952-2.3430176,4.2081909-4.0014648h6.385437l-0.1821289,0.8476563h-0.5442505   c-0.4140625,0-0.75,0.3359375-0.75,0.75s0.3359375,0.75,0.75,0.75h2.3017578c0.4140625,0,0.75-0.3359375,0.75-0.75   s-0.3359375-0.75-0.75-0.75h-0.2229004l0.1821289-0.8476563h11.9644775c1.484436,2.3513794,3.769104,4.1470947,6.477356,4.9819336   c0.0983887,0.2994995,0.3710938,0.5195313,0.7034302,0.5195313h4c0.1489868,0,0.2797852-0.0546265,0.3965454-0.1295776   c1.0071411-0.142395,1.9772339-0.401001,2.8861694-0.7825317c-0.0122681,0.053772-0.0327148,0.1046143-0.0327148,0.1621094   c0,0.4140625,0.3359375,0.75,0.75,0.75h4c0.4140625,0,0.75-0.3359375,0.75-0.75s-0.3359375-0.75-0.75-0.75h-3.5234985   c3.5924683-2.0146484,6.0293579-5.8556519,6.0293579-10.2592773c0-6.4775391-5.2753906-11.7470703-11.7587891-11.7470703   c-1.0250854,0-2.0144653,0.1454468-2.9629517,0.3933105l-3.2196655-9.7311993   c-0.0008545-0.0026245-0.0028687-0.0048218-0.0037231-0.0074463c-0.0009766-0.0028687-0.0001831-0.0057983-0.0011597-0.008667   l-1.4658203-4.2524414h9.0195313c1.3164063,0,2.3867188,1.0703125,2.3867188,2.3857422   c0,1.315918-1.0703125,2.3862305-2.3867188,2.3862305H53.375c-0.4140625,0-0.75,0.3359375-0.75,0.75s0.3359375,0.75,0.75,0.75   h1.3603516c2.1435547,0,3.8867188-1.7431641,3.8867188-3.8862305c0-2.1425781-1.7431641-3.8857422-3.8867188-3.8857422H44.6640625   c-0.2421875,0-0.4697266,0.1171875-0.6103516,0.3144531s-0.1777344,0.4506836-0.0986328,0.6801758l1.4657593,4.2524414H26.4674072   l-0.8363647-2.8388672h2.2537231c0.4140625,0,0.75-0.3359375,0.75-0.75s-0.3359375-0.75-0.75-0.75h-6.5136719   c-0.4140625,0-0.75,0.3359375-0.75,0.75s0.3359375,0.75,0.75,0.75h2.6956177l1.0531616,3.574585l-6.1690063,10.4141216   c-1.6026001-0.8189697-3.411499-1.2904663-5.3317261-1.2904663c-6.4775391,0-11.7470703,5.2695313-11.7470703,11.7470703   C1.8720703,53.1709633,5.2416382,57.5721474,9.8995361,59.1344643z M24.3630371,52.7470741   c0.5499878-1.2369385,0.8858032-2.5853271,0.9765625-4.0014648h4.3677979   c0.1878662,0.5946045,0.5877075,1.0859375,1.118103,1.390564l-0.5609741,2.6109009H24.3630371z M15.3637085,47.2456093   c-0.0557861-0.128479-0.1281738-0.2470093-0.2097778-0.3588257l4.322998-7.2979126   c2.4644165,1.7198486,4.1339722,4.4900513,4.3632813,7.6567383H15.3637085z M53.3691406,37.7421913   c5.65625,0,10.2587891,4.5966797,10.2587891,10.2470703c0,5.6572266-4.6025391,10.2592773-10.2587891,10.2592773   c-5.6503906,0-10.2470703-4.6020508-10.2470703-10.2592773c0-4.2630005,2.6178589-7.9233398,6.3293457-9.46521l2.6671143,8.0610352   c-0.3897095,0.3464355-0.6390381,0.8466797-0.6390381,1.4126587c0,1.0515747,0.8438721,1.8955078,1.8954468,1.8955078   c1.0386963,0,1.8955078-0.8439331,1.8955078-1.8955078c0-0.993103-0.7666626-1.7915649-1.7264404-1.878418l-2.6661377-8.0581055   C51.677002,37.8604774,52.5085449,37.7421913,53.3691406,37.7421913z M41.6220703,47.9892616   c0,1.6939697,0.3668213,3.3013916,1.0137329,4.7578125h-10.836731l0.4937744-2.2979736   c1.2458496-0.1208496,2.2385864-1.1600952,2.2385864-2.451355c0-0.5718384-0.2017212-1.0901489-0.526123-1.5079346   l12.2280884-17.6919537l2.7471924,8.3030376C44.6725464,38.8437538,41.6220703,43.0637245,41.6220703,47.9892616z    M45.0429688,27.8828182L33.8882446,44.0206947l0.6710205-3.1246948h0.5452271c0.4140625,0,0.75-0.3359375,0.75-0.75   s-0.3359375-0.75-0.75-0.75h-2.3017578c-0.4140625,0-0.75,0.3359375-0.75,0.75s0.3359375,0.75,0.75,0.75h0.222168   l-0.9619141,4.4796143l-5.1536255-17.4927959H45.0429688z M25.6991577,29.0847836l4.9675903,16.8612041   c-0.4537964,0.3068848-0.788208,0.7654419-0.9580078,1.2996216H25.34021   c-0.2344971-3.7144165-2.192749-6.9669189-5.09552-8.9527588L25.6991577,29.0847836z M13.6191406,37.7421913   c1.6412354,0,3.1882935,0.3967285,4.5654297,1.0842285l-4.3240967,7.2996216   c-0.078064-0.0098267-0.1549072-0.0238037-0.2354736-0.0238037c-1.0516357,0-1.8954468,0.8438721-1.8954468,1.8955078   c0,1.0515747,0.843811,1.8955078,1.8954468,1.8955078c0.7757568,0,1.4493408-0.4711914,1.7410278-1.147644h8.4736328   c-0.3897095,5.3040771-4.819519,9.5029297-10.22052,9.5029297c-5.6503906,0-10.2470703-4.6020508-10.2470703-10.2592773   C3.3720703,42.338871,7.96875,37.7421913,13.6191406,37.7421913z"/><path d="M26.6220703,58.248539c-0.4140625,0-0.75,0.3359375-0.75,0.75s0.3359375,0.75,0.75,0.75h4   c0.4140625,0,0.75-0.3359375,0.75-0.75s-0.3359375-0.75-0.75-0.75H26.6220703z"/><path d="M34.6220703,58.248539c-0.4140625,0-0.75,0.3359375-0.75,0.75s0.3359375,0.75,0.75,0.75h4   c0.4140625,0,0.75-0.3359375,0.75-0.75s-0.3359375-0.75-0.75-0.75H34.6220703z"/><path d="M42.6220703,58.248539c-0.4140625,0-0.75,0.3359375-0.75,0.75s0.3359375,0.75,0.75,0.75h4   c0.4140625,0,0.75-0.3359375,0.75-0.75s-0.3359375-0.75-0.75-0.75H42.6220703z"/><path d="M2.6220703,59.748539h4c0.4140625,0,0.75-0.3359375,0.75-0.75s-0.3359375-0.75-0.75-0.75h-4   c-0.4140625,0-0.75,0.3359375-0.75,0.75S2.2080078,59.748539,2.6220703,59.748539z"/><path d="M2.6220703,65.2500076h61.7558594c0.4140625,0,0.75-0.3359375,0.75-0.75s-0.3359375-0.7500038-0.75-0.7500038H2.6220703   c-0.4140625,0-0.75,0.3359413-0.75,0.7500038S2.2080078,65.2500076,2.6220703,65.2500076z"/><path d="M11.7294922,1.7500051c-3.7880859,0-6.8701172,3.0820313-6.8701172,6.8701167   c0,3.5146484,5.6181641,11.5190439,6.2587891,12.4204111c0.1902781,0.2675629,0.5916309,0.4249649,0.9663086,0.2224731   c0.0039063-0.0020752,0.0083618-0.0010376,0.012207-0.0032349l11.3671875-6.3901377l2.4335938,3.5644541   c0.1523438,0.2226563,0.4003906,0.3447266,0.6826172,0.324707c0.2695313-0.0229492,0.5058594-0.1889648,0.6181641-0.4350586   l2.5898438-5.6474619l4.1865234,4.6284189c0.1640625,0.1801758,0.3994141,0.2700195,0.6464844,0.2416992   c0.2412109-0.0292969,0.4541016-0.1738281,0.5703125-0.3881836l3.0664063-5.6723642l3.1855469,3.8935547   c0.1503906,0.184082,0.3867188,0.284668,0.6181641,0.2739258c0.2373047-0.0117188,0.4550781-0.1362305,0.5869141-0.3344727   l4.3056641-6.496582l3.84375,3.0913086c0.1494141,0.1196289,0.3310547,0.1796875,0.5292969,0.1630859l4.4905396-0.3554688   c0.4814453,1.6101685,1.9589233,2.7949219,3.7243042,2.7949219c2.1533203,0,3.9042969-1.7514648,3.9042969-3.9038086   c0-2.152832-1.7509766-3.9042964-3.9042969-3.9042964c-2.0216675,0-3.6690674,1.549499-3.8654175,3.5198359l-4.1707153,0.3302612   l-4.2529297-3.4204097c-0.1630859-0.1323242-0.3759766-0.1884766-0.5849609-0.1567383   c-0.2080078,0.0322266-0.3935547,0.1508789-0.5097656,0.3266602l-4.1982422,6.3344722l-3.25-3.972168   c-0.1572266-0.1928711-0.390625-0.2949219-0.6513672-0.2714844c-0.2490234,0.0239258-0.4697266,0.1699219-0.5888672,0.3901367   l-3.09375,5.7236328l-4.2382813-4.6860352c-0.1699467-0.1875-0.4228516-0.2763672-0.6708984-0.2382813   c-0.2490482,0.0380859-0.4619141,0.1992188-0.5673828,0.4287109l-2.5117188,5.4760752l-2.0732422-3.036622   c-0.21875-0.3198242-0.6464844-0.421875-0.9863281-0.230957l-9.2102661,5.1779184   c1.8654785-2.895875,4.4817505-7.3839121,4.4817505-9.7828989C18.5996094,4.8320365,15.5175781,1.7500051,11.7294922,1.7500051z    M59.5419922,8.2080126c1.3261719,0,2.4042969,1.0786133,2.4042969,2.4042969s-1.078125,2.4038086-2.4042969,2.4038086   s-2.4042969-1.078125-2.4042969-2.4038086S58.2158203,8.2080126,59.5419922,8.2080126z M11.7294922,3.250005   c2.9609375,0,5.3701172,2.4091799,5.3701172,5.3701172c0,2.2988281-3.4492188,7.8466806-5.3701172,10.6704111   C9.8085938,16.4668026,6.359375,10.9189501,6.359375,8.620122C6.359375,5.6591849,8.7685547,3.250005,11.7294922,3.250005z"/><path d="M15.3359375,8.4770555c0-1.9907222-1.6191406-3.6103511-3.6103516-3.6103511   c-1.9863281,0-3.6025391,1.6196289-3.6025391,3.6103511c0,1.9863281,1.6162109,3.6020508,3.6025391,3.6020508   C13.7167969,12.0791063,15.3359375,10.4633837,15.3359375,8.4770555z M11.7255859,10.5791063   c-1.1591797,0-2.1025391-0.9428711-2.1025391-2.1020508c0-1.1635737,0.9433594-2.1103511,2.1025391-2.1103511   c1.1640625,0,2.1103516,0.9467773,2.1103516,2.1103511C13.8359375,9.6362352,12.8896484,10.5791063,11.7255859,10.5791063z"/></g><text x="0" y="82" fill="#000000" font-size="5px" font-weight="bold" font-family="'Helvetica Neue', Helvetica, Arial-Unicode, Arial, Sans-serif">Created by Vectors Point</text><text x="0" y="87" fill="#000000" font-size="5px" font-weight="bold" font-family="'Helvetica Neue', Helvetica, Arial-Unicode, Arial, Sans-serif">from the Noun Project</text></svg>